#Comment line ignore any data following # character 
#Hierarchical Translation and Rotation (.htr) file 
[Header]	
#Header keywords are followed by a single value 
FileType HTR		#Single word string
DataType HTRS		#Translation followed by rotation and scale data
FileVersion 1		#integer
NumSegments 84		#integer
NumFrames 2		#integer
DataFrameRate 30		#integer, data frame rate in this file
EulerRotationOrder ZYX
CalibrationUnits mm
RotationUnits Degrees
GlobalAxisofGravity Y
BoneLengthAxis Y
ScaleFactor 1.00
[SegmentNames&Hierarchy]
#CHILD	PARENT
MASTER GLOBAL
root MASTER
chest root
L_mid_tent01 root
R_mid_tent01 root
spine01 root
Bip01_Neck chest
L_humerus chest
R_humerus chest
weapon_bone chest
Bip01_Head Bip01_Neck
eye_left_bone Bip01_Head
eye_right_bone Bip01_Head
L_forearm L_humerus
L_front_hand L_forearm
L_weapon_bone L_forearm
L_front_hand01_01 L_front_hand
L_front_hand02_01 L_front_hand
L_front_hand03_01 L_front_hand
L_front_hand01_02 L_front_hand01_01
L_front_hand02_02 L_front_hand02_01
L_front_hand03_02 L_front_hand03_01
R_forearm R_humerus
R_front_hand R_forearm
R_weapon_bone R_forearm
R_front_hand01_01 R_front_hand
R_front_hand02_01 R_front_hand
R_front_hand03_01 R_front_hand
R_front_hand01_02 R_front_hand01_01
R_front_hand02_02 R_front_hand02_01
R_front_hand03_02 R_front_hand03_01
null_rope01_connect L_mid_tent01
Rope1_Seg01 null_rope01_connect
Rope1_Seg02 Rope1_Seg01
Rope1_Seg03 Rope1_Seg02
Rope1_Seg04 Rope1_Seg03
Rope1_Seg05 Rope1_Seg04
Rope1_Seg06 Rope1_Seg05
Rope1_Seg07 Rope1_Seg06
Rope1_Seg09 Rope1_Seg07
L_mid_hand01 Rope1_Seg09
L_mid_hand02 Rope1_Seg09
L_mid_hand03 Rope1_Seg09
null_rope02_connect R_mid_tent01
Rope2_Seg01 null_rope02_connect
Rope2_Seg02 Rope2_Seg01
Rope2_Seg03 Rope2_Seg02
Rope2_Seg04 Rope2_Seg03
Rope2_Seg05 Rope2_Seg04
Rope2_Seg06 Rope2_Seg05
Rope2_Seg07 Rope2_Seg06
Rope2_Seg09 Rope2_Seg07
R_mid_hand01 Rope2_Seg09
R_mid_hand02 Rope2_Seg09
R_mid_hand03 Rope2_Seg09
spine02 spine01
spine03 spine02
pelvis spine03
null_rope03_connect pelvis
null_rope04_connect pelvis
Rope3_Seg01 null_rope03_connect
Rope3_Seg02 Rope3_Seg01
Rope3_Seg03 Rope3_Seg02
Rope3_Seg04 Rope3_Seg03
Rope3_Seg05 Rope3_Seg04
Rope3_Seg06 Rope3_Seg05
Rope3_Seg07 Rope3_Seg06
Rope3_Seg08 Rope3_Seg07
Rope3_Seg09 Rope3_Seg08
R_rear_hand01 Rope3_Seg09
R_rear_hand02 Rope3_Seg09
R_rear_hand03 Rope3_Seg09
Rope4_Seg01 null_rope04_connect
Rope4_Seg02 Rope4_Seg01
Rope4_Seg03 Rope4_Seg02
Rope4_Seg04 Rope4_Seg03
Rope4_Seg05 Rope4_Seg04
Rope4_Seg06 Rope4_Seg05
Rope4_Seg07 Rope4_Seg06
Rope4_Seg08 Rope4_Seg07
Rope4_Seg09 Rope4_Seg08
L_rear_hand01 Rope4_Seg09
L_rear_hand02 Rope4_Seg09
L_rear_hand03 Rope4_Seg09
[BasePosition]
#SegmentName Tx, Ty, Tz, Rx, Ry, Rz, BoneLength
MASTER 0.000000 0.000000 0.000000 -90.000000 0.000000 0.000000 10.000000 
root 0.000000 0.000000 0.000000 0.000000 0.000000 0.000000 10.000000 
chest 0.000000 0.000000 0.000000 0.000000 0.000000 0.000000 10.000000 
L_mid_tent01 0.000000 0.000000 0.000000 0.000000 0.000000 0.000000 10.000000 
R_mid_tent01 0.000000 0.000000 0.000000 0.000000 0.000000 0.000000 10.000000 
spine01 0.000000 0.000000 0.000000 0.000000 0.000000 0.000000 10.000000 
Bip01_Neck 0.000000 0.000000 0.000000 0.000000 0.000000 0.000000 10.000000 
L_humerus 0.000000 0.000000 0.000000 0.000000 0.000000 0.000000 10.000000 
R_humerus 0.000000 0.000000 0.000000 0.000000 0.000000 0.000000 10.000000 
weapon_bone 0.000000 0.000000 0.000000 0.000000 0.000000 0.000000 10.000000 
Bip01_Head 0.000000 0.000000 0.000000 0.000000 0.000000 0.000000 10.000000 
eye_left_bone 0.000000 0.000000 0.000000 0.000000 0.000000 0.000000 10.000000 
eye_right_bone 0.000000 0.000000 0.000000 0.000000 0.000000 0.000000 10.000000 
L_forearm 0.000000 0.000000 0.000000 0.000000 0.000000 0.000000 10.000000 
L_front_hand 0.000000 0.000000 0.000000 0.000000 0.000000 0.000000 10.000000 
L_weapon_bone 0.000000 0.000000 0.000000 0.000000 0.000000 0.000000 10.000000 
L_front_hand01_01 0.000000 0.000000 0.000000 0.000000 0.000000 0.000000 10.000000 
L_front_hand02_01 0.000000 0.000000 0.000000 0.000000 0.000000 0.000000 10.000000 
L_front_hand03_01 0.000000 0.000000 0.000000 0.000000 0.000000 0.000000 10.000000 
L_front_hand01_02 0.000000 0.000000 0.000000 0.000000 0.000000 0.000000 10.000000 
L_front_hand02_02 0.000000 0.000000 0.000000 0.000000 0.000000 0.000000 10.000000 
L_front_hand03_02 0.000000 0.000000 0.000000 0.000000 0.000000 0.000000 10.000000 
R_forearm 0.000000 0.000000 0.000000 0.000000 0.000000 0.000000 10.000000 
R_front_hand 0.000000 0.000000 0.000000 0.000000 0.000000 0.000000 10.000000 
R_weapon_bone 0.000000 0.000000 0.000000 0.000000 0.000000 0.000000 10.000000 
R_front_hand01_01 0.000000 0.000000 0.000000 0.000000 0.000000 0.000000 10.000000 
R_front_hand02_01 0.000000 0.000000 0.000000 0.000000 0.000000 0.000000 10.000000 
R_front_hand03_01 0.000000 0.000000 0.000000 0.000000 0.000000 0.000000 10.000000 
R_front_hand01_02 0.000000 0.000000 0.000000 0.000000 0.000000 0.000000 10.000000 
R_front_hand02_02 0.000000 0.000000 0.000000 0.000000 0.000000 0.000000 10.000000 
R_front_hand03_02 0.000000 0.000000 0.000000 0.000000 0.000000 0.000000 10.000000 
null_rope01_connect 0.000000 0.000000 0.000000 0.000000 0.000000 0.000000 10.000000 
Rope1_Seg01 0.000000 0.000000 0.000000 0.000000 0.000000 0.000000 10.000000 
Rope1_Seg02 0.000000 0.000000 0.000000 0.000000 0.000000 0.000000 10.000000 
Rope1_Seg03 0.000000 0.000000 0.000000 0.000000 0.000000 0.000000 10.000000 
Rope1_Seg04 0.000000 0.000000 0.000000 0.000000 0.000000 0.000000 10.000000 
Rope1_Seg05 0.000000 0.000000 0.000000 0.000000 0.000000 0.000000 10.000000 
Rope1_Seg06 0.000000 0.000000 0.000000 0.000000 0.000000 0.000000 10.000000 
Rope1_Seg07 0.000000 0.000000 0.000000 0.000000 0.000000 0.000000 10.000000 
Rope1_Seg09 0.000000 0.000000 0.000000 0.000000 0.000000 0.000000 10.000000 
L_mid_hand01 0.000000 0.000000 0.000000 0.000000 0.000000 0.000000 10.000000 
L_mid_hand02 0.000000 0.000000 0.000000 0.000000 0.000000 0.000000 10.000000 
L_mid_hand03 0.000000 0.000000 0.000000 0.000000 0.000000 0.000000 10.000000 
null_rope02_connect 0.000000 0.000000 0.000000 0.000000 0.000000 0.000000 10.000000 
Rope2_Seg01 0.000000 0.000000 0.000000 0.000000 0.000000 0.000000 10.000000 
Rope2_Seg02 0.000000 0.000000 0.000000 0.000000 0.000000 0.000000 10.000000 
Rope2_Seg03 0.000000 0.000000 0.000000 0.000000 0.000000 0.000000 10.000000 
Rope2_Seg04 0.000000 0.000000 0.000000 0.000000 0.000000 0.000000 10.000000 
Rope2_Seg05 0.000000 0.000000 0.000000 0.000000 0.000000 0.000000 10.000000 
Rope2_Seg06 0.000000 0.000000 0.000000 0.000000 0.000000 0.000000 10.000000 
Rope2_Seg07 0.000000 0.000000 0.000000 0.000000 0.000000 0.000000 10.000000 
Rope2_Seg09 0.000000 0.000000 0.000000 0.000000 0.000000 0.000000 10.000000 
R_mid_hand01 0.000000 0.000000 0.000000 0.000000 0.000000 0.000000 10.000000 
R_mid_hand02 0.000000 0.000000 0.000000 0.000000 0.000000 0.000000 10.000000 
R_mid_hand03 0.000000 0.000000 0.000000 0.000000 0.000000 0.000000 10.000000 
spine02 0.000000 0.000000 0.000000 0.000000 0.000000 0.000000 10.000000 
spine03 0.000000 0.000000 0.000000 0.000000 0.000000 0.000000 10.000000 
pelvis 0.000000 0.000000 0.000000 0.000000 0.000000 0.000000 10.000000 
null_rope03_connect 0.000000 0.000000 0.000000 0.000000 0.000000 0.000000 10.000000 
null_rope04_connect 0.000000 0.000000 0.000000 0.000000 0.000000 0.000000 10.000000 
Rope3_Seg01 0.000000 0.000000 0.000000 0.000000 0.000000 0.000000 10.000000 
Rope3_Seg02 0.000000 0.000000 0.000000 0.000000 0.000000 0.000000 10.000000 
Rope3_Seg03 0.000000 0.000000 0.000000 0.000000 0.000000 0.000000 10.000000 
Rope3_Seg04 0.000000 0.000000 0.000000 0.000000 0.000000 0.000000 10.000000 
Rope3_Seg05 0.000000 0.000000 0.000000 0.000000 0.000000 0.000000 10.000000 
Rope3_Seg06 0.000000 0.000000 0.000000 0.000000 0.000000 0.000000 10.000000 
Rope3_Seg07 0.000000 0.000000 0.000000 0.000000 0.000000 0.000000 10.000000 
Rope3_Seg08 0.000000 0.000000 0.000000 0.000000 0.000000 0.000000 10.000000 
Rope3_Seg09 0.000000 0.000000 0.000000 0.000000 0.000000 0.000000 10.000000 
R_rear_hand01 0.000000 0.000000 0.000000 0.000000 0.000000 0.000000 10.000000 
R_rear_hand02 0.000000 0.000000 0.000000 0.000000 0.000000 0.000000 10.000000 
R_rear_hand03 0.000000 0.000000 0.000000 0.000000 0.000000 0.000000 10.000000 
Rope4_Seg01 0.000000 0.000000 0.000000 0.000000 0.000000 0.000000 10.000000 
Rope4_Seg02 0.000000 0.000000 0.000000 0.000000 0.000000 0.000000 10.000000 
Rope4_Seg03 0.000000 0.000000 0.000000 0.000000 0.000000 0.000000 10.000000 
Rope4_Seg04 0.000000 0.000000 0.000000 0.000000 0.000000 0.000000 10.000000 
Rope4_Seg05 0.000000 0.000000 0.000000 0.000000 0.000000 0.000000 10.000000 
Rope4_Seg06 0.000000 0.000000 0.000000 0.000000 0.000000 0.000000 10.000000 
Rope4_Seg07 0.000000 0.000000 0.000000 0.000000 0.000000 0.000000 10.000000 
Rope4_Seg08 0.000000 0.000000 0.000000 0.000000 0.000000 0.000000 10.000000 
Rope4_Seg09 0.000000 0.000000 0.000000 0.000000 0.000000 0.000000 10.000000 
L_rear_hand01 0.000000 0.000000 0.000000 0.000000 0.000000 0.000000 10.000000 
L_rear_hand02 0.000000 0.000000 0.000000 0.000000 0.000000 0.000000 10.000000 
L_rear_hand03 0.000000 0.000000 0.000000 0.000000 0.000000 0.000000 10.000000 
#Beginning of Data. Separated by tabs
#Fr	Tx	Ty	Tz	Rx	Ry	Rz	SF
[MASTER]
31 -0.000563 3749.999023 0.000000 0.001660 0.001660 0.001660 3749.999023
32 -0.000582 3874.998535 0.000000 0.001660 0.001660 0.001660 3874.998535
[root]
31 -33.882278 -52.643730 1507.092407 -91.728897 -11.584496 -89.471619 1508.391968
32 -32.115223 -53.100887 1507.482300 -91.728889 -11.584497 -89.471619 1508.759033
[chest]
31 -84.512650 -34.090519 0.000000 -2.174358 -0.047478 167.671097 91.129311
32 -84.512650 -34.090519 0.000000 -2.172732 -0.040491 167.767746 91.129311
[L_mid_tent01]
31 27.299160 22.179258 -249.918671 -20.462355 9.210409 14.057085 252.381668
32 27.299164 22.179258 -249.918671 -20.480042 9.497884 13.947423 252.381668
[R_mid_tent01]
31 23.228794 24.509907 226.238495 -165.561951 -12.796786 25.450661 228.744751
32 23.228794 24.509907 226.238495 -165.529861 -13.342806 25.306166 228.744751
[spine01]
31 -0.361383 -0.195265 0.000000 0.001950 0.001307 22.324049 0.410763
32 -0.361383 -0.195265 0.000000 0.001949 0.001308 22.280350 0.410763
[Bip01_Neck]
31 165.484543 71.581718 0.000119 176.643677 -1.657967 43.431911 180.302734
32 165.484543 71.581718 0.000119 176.643677 -1.657967 43.431911 180.302734
[L_humerus]
31 -13.983130 -135.272980 -120.471481 179.494629 44.011940 -89.570503 181.680161
32 -13.983130 -135.272980 -120.471481 179.859726 50.833836 -89.301094 181.680161
[R_humerus]
31 -13.983309 -135.273102 125.287651 177.932098 -45.065273 -81.497856 184.909012
32 -13.983309 -135.273102 125.287651 176.246246 -51.378231 -79.902382 184.909012
[weapon_bone]
31 235.964890 -300.705902 0.000000 0.000000 -89.951546 -128.212341 382.234833
32 235.964890 -300.705902 0.000000 0.000000 -89.951546 -128.212341 382.234833
[Bip01_Head]
31 213.416733 185.791779 10.791777 4.440357 -0.902638 -43.900562 283.163849
32 213.393555 185.855865 9.962261 4.440346 -0.792384 -43.899574 283.158020
[eye_left_bone]
31 -24.626970 125.451866 -64.772606 0.000000 -90.000000 -99.840431 143.318359
32 -24.626970 125.451866 -64.772606 0.000000 -90.000000 -99.840431 143.318359
[eye_right_bone]
31 -24.626970 125.451866 64.327362 0.000000 -89.965736 80.156380 143.117676
32 -24.626970 125.451866 64.327362 0.000000 -89.965736 80.156380 143.117676
[L_forearm]
31 322.776093 0.000000 -0.000119 0.000407 -0.002312 -109.990097 322.776093
32 322.776093 0.000000 -0.000119 0.000405 -0.002312 -109.891899 322.776093
[L_front_hand]
31 241.149185 -0.042021 -3.300071 -178.667953 -1.835447 -27.422350 241.171753
32 241.149185 -0.042021 -3.300071 -178.667953 -1.835447 -27.422342 241.171753
[L_weapon_bone]
31 156.183838 0.000000 0.000000 0.000014 0.000007 0.000001 156.183838
32 156.183838 0.000000 0.000000 0.000014 0.000007 0.000001 156.183838
[L_front_hand01_01]
31 86.095154 20.947098 -0.655860 -0.365371 -0.478091 75.092110 88.609184
32 86.095154 20.947098 -0.655860 -0.366282 -0.477394 75.310593 88.609184
[L_front_hand02_01]
31 86.935165 -11.437475 24.513514 153.946487 -59.758568 -60.843483 91.046425
32 86.935165 -11.437475 24.513514 154.278549 -59.851875 -61.226555 91.046425
[L_front_hand03_01]
31 86.637497 -14.123976 -20.424902 -153.504333 57.989796 -62.217342 90.126129
32 86.637497 -14.123976 -20.424902 -153.811523 58.084942 -62.579281 90.126129
[L_front_hand01_02]
31 71.020905 -0.000179 0.000030 0.000328 -0.002324 -106.046089 71.020905
32 71.020905 -0.000179 0.000030 0.000329 -0.002324 -106.099617 71.020905
[L_front_hand02_02]
31 71.020927 -0.000119 0.000060 0.000328 -0.002324 -106.046089 71.020927
32 71.020927 -0.000119 0.000060 0.000329 -0.002324 -106.099617 71.020927
[L_front_hand03_02]
31 71.020905 -0.000060 0.000060 0.000328 -0.002324 -106.046089 71.020905
32 71.020905 -0.000060 0.000060 0.000329 -0.002324 -106.099617 71.020905
[R_forearm]
31 322.776428 -0.000060 0.000030 0.201770 0.066181 -108.643364 322.776428
32 322.776428 -0.000060 0.000030 0.201827 0.066007 -108.544823 322.776428
[R_front_hand]
31 238.847015 -0.006795 2.210259 -2.635298 -10.645461 -26.312506 238.857239
32 238.847015 -0.006795 2.210259 -2.635298 -10.645461 -26.312506 238.857239
[R_weapon_bone]
31 155.664093 0.002503 -0.000030 0.003487 0.001180 -90.988930 155.664078
32 155.664093 0.002503 -0.000030 0.003487 0.001180 -90.988930 155.664078
[R_front_hand01_01]
31 87.624611 14.231146 22.918642 -154.633499 -59.950634 61.746063 91.683487
32 87.624611 14.231146 22.918642 -154.633514 -59.950626 61.746063 91.683487
[R_front_hand02_01]
31 89.356956 14.367283 -19.491137 154.602661 58.302849 63.744381 92.579636
32 89.356956 14.367283 -19.491137 154.602661 58.302849 63.744381 92.579636
[R_front_hand03_01]
31 87.286232 -22.307278 -0.143439 0.162155 -0.423168 -75.767921 90.091743
32 87.286232 -22.307278 -0.143439 0.162155 -0.423168 -75.767921 90.091743
[R_front_hand01_02]
31 71.020905 0.000060 0.000119 0.002323 -0.000334 106.381714 71.020905
32 71.020905 0.000060 0.000119 0.002323 -0.000334 106.381714 71.020905
[R_front_hand02_02]
31 71.020844 -0.000030 -0.000119 0.002323 -0.000334 106.381714 71.020836
32 71.020844 -0.000030 -0.000119 0.002323 -0.000334 106.381714 71.020836
[R_front_hand03_02]
31 71.020905 0.000000 0.000030 0.002323 -0.000334 106.381714 71.020905
32 71.020905 0.000000 0.000030 0.002323 -0.000334 106.381714 71.020905
[null_rope01_connect]
31 328.732483 0.000000 -0.000238 -160.990631 -66.109360 -112.994019 328.732483
32 328.732483 0.000000 -0.000238 -160.297928 -65.986473 -113.628922 328.732483
[Rope1_Seg01]
31 -0.000029 -0.000238 0.000038 83.478447 2.474355 -99.614532 0.000243
32 -0.000030 -0.000245 0.000034 82.886131 2.954039 -99.755508 0.000249
[Rope1_Seg02]
31 139.999863 -0.000179 0.000000 3.409923 5.468937 -2.059691 139.999863
32 139.999863 -0.000179 0.000000 3.650632 5.571197 -1.861828 139.999863
[Rope1_Seg03]
31 139.999924 0.000060 -0.000060 -2.124826 2.784107 -5.955553 139.999924
32 139.999924 0.000060 -0.000060 -1.750039 3.098170 -5.782882 139.999924
[Rope1_Seg04]
31 139.999924 -0.000060 -0.000119 7.115077 9.022437 1.811393 139.999924
32 139.999924 -0.000060 -0.000119 6.937351 8.674974 1.919832 139.999924
[Rope1_Seg05]
31 139.999832 0.000119 -0.000060 10.104216 9.217128 7.431654 139.999832
32 139.999832 0.000119 -0.000060 10.012432 8.686907 7.628988 139.999832
[Rope1_Seg06]
31 139.999954 0.000119 -0.000060 2.718157 3.350386 1.511526 139.999954
32 139.999954 0.000119 -0.000060 2.794868 3.252179 1.644995 139.999954
[Rope1_Seg07]
31 139.999985 0.000060 0.000000 1.382825 1.883112 0.667464 139.999985
32 139.999985 0.000060 0.000000 1.433169 1.842388 0.737034 139.999985
[Rope1_Seg09]
31 121.602913 0.000119 -0.000089 -89.793175 -1.359789 0.847147 121.602913
32 121.602913 0.000119 -0.000089 -89.793175 -1.359789 0.847147 121.602913
[L_mid_hand01]
31 103.859421 1.038730 8.195221 130.544373 -67.584534 -38.866943 104.187431
32 103.859421 1.038730 8.195221 130.544373 -67.584534 -38.866943 104.187431
[L_mid_hand02]
31 105.572853 -4.139662 -10.864139 -168.923172 43.409309 -73.498886 106.211075
32 105.572853 -4.139662 -10.864139 -168.923172 43.409309 -73.498886 106.211075
[L_mid_hand03]
31 104.641464 17.579376 -3.913581 -6.012627 17.808174 74.893669 106.179977
32 104.641464 17.579376 -3.913581 -6.012627 17.808174 74.893669 106.179977
[null_rope02_connect]
31 328.732849 0.000179 -0.000119 -150.292145 72.200241 -44.646599 328.732849
32 328.732849 0.000179 -0.000119 -149.022781 71.795097 -43.439041 328.732849
[Rope2_Seg01]
31 0.000105 -0.000200 0.000000 -38.150551 -3.449250 -76.285614 0.000226
32 0.000106 -0.000211 0.000000 -37.311642 -2.816976 -76.145653 0.000236
[Rope2_Seg02]
31 139.999741 -0.000060 -0.000119 -1.973178 6.922938 -4.851510 139.999756
32 139.999741 -0.000060 -0.000119 -1.724608 6.300014 -4.344534 139.999756
[Rope2_Seg03]
31 140.000107 0.000030 0.000000 1.233499 2.660547 0.213349 140.000107
32 140.000107 0.000030 0.000000 1.649703 2.280710 0.781524 140.000107
[Rope2_Seg04]
31 139.999802 0.000000 -0.000060 -3.682491 7.655207 -8.250639 139.999802
32 139.999802 0.000000 -0.000060 -4.037807 7.042075 -8.300523 139.999802
[Rope2_Seg05]
31 139.999985 -0.000060 0.000119 -2.779173 6.980719 -8.114282 139.999985
32 139.999985 -0.000060 0.000119 -3.289832 6.840580 -8.743054 139.999985
[Rope2_Seg06]
31 139.999893 -0.000030 -0.000119 -0.677395 2.928280 -2.944827 139.999893
32 139.999893 -0.000030 -0.000119 -0.812290 2.933220 -3.180944 139.999893
[Rope2_Seg07]
31 139.999893 0.000060 -0.000060 -0.346568 1.772223 -1.725076 139.999893
32 139.999893 0.000060 -0.000060 -0.408157 1.780745 -1.859633 139.999893
[Rope2_Seg09]
31 121.338966 0.000089 -0.000060 33.793236 -1.359788 -0.847141 121.338966
32 121.338966 0.000089 -0.000060 33.793236 -1.359788 -0.847141 121.338966
[R_mid_hand01]
31 104.680779 11.144459 -10.335981 -16.212063 45.237247 70.462852 105.778534
32 104.680779 11.144459 -10.335981 -16.212063 45.237247 70.462852 105.778534
[R_mid_hand02]
31 104.070427 2.443552 8.231699 49.067368 -67.749771 39.286453 104.424065
32 104.070427 2.443552 8.231699 49.067368 -67.749771 39.286453 104.424065
[R_mid_hand03]
31 106.028137 -11.221827 -5.996406 -177.101105 15.551026 -76.585571 106.788818
32 106.028137 -11.221827 -5.996406 -177.101105 15.551026 -76.585571 106.788818
[spine02]
31 129.756927 0.001550 0.000119 0.413790 -4.039156 -13.741064 129.756927
32 129.756927 0.001550 0.000119 0.403870 -4.040237 -13.599124 129.756927
[spine03]
31 78.613930 0.081635 -4.899019 1.930327 3.814552 16.987698 78.766472
32 78.613922 0.081635 -4.899020 1.924674 3.817153 16.898891 78.766457
[pelvis]
31 169.435242 0.051022 0.000000 -0.062094 -0.179671 15.125052 169.435257
32 169.435242 0.051022 0.000000 -0.061844 -0.179757 14.965448 169.435257
[null_rope03_connect]
31 -1.257226 -2.466202 137.391083 0.000000 -89.435593 60.902637 137.418976
32 -1.257226 -2.466202 137.391083 0.000000 -89.428024 61.073627 137.418976
[null_rope04_connect]
31 -1.259640 -2.480268 -137.844437 0.000000 -89.435593 60.902637 137.872513
32 -1.259640 -2.480268 -137.844437 0.000000 -89.428024 61.073627 137.872513
[Rope3_Seg01]
31 0.000010 0.000038 -0.000114 5.582602 33.675640 -102.558128 0.000121
32 0.000010 0.000038 -0.000114 6.290316 33.928913 -101.360428 0.000121
[Rope3_Seg02]
31 139.999924 -0.000119 0.000060 0.941802 -4.428088 3.603780 139.999924
32 139.999924 -0.000119 0.000060 0.813632 -4.226120 3.624750 139.999924
[Rope3_Seg03]
31 139.999924 -0.000119 0.000119 1.105689 -6.296658 5.347003 139.999924
32 139.999924 -0.000119 0.000119 0.908311 -5.984617 5.319804 139.999924
[Rope3_Seg04]
31 139.999924 0.000119 0.000000 0.881068 -13.189543 11.790537 139.999924
32 139.999924 0.000119 0.000000 0.397142 -11.870800 11.925753 139.999924
[Rope3_Seg05]
31 139.999924 -0.000238 0.000060 0.415640 -9.461951 9.416893 139.999924
32 139.999924 -0.000238 0.000060 -0.001893 -10.108682 9.256718 139.999924
[Rope3_Seg06]
31 139.999893 -0.000119 -0.000060 -0.360917 5.814912 -5.183429 139.999893
32 139.999893 -0.000119 -0.000060 -0.179129 3.727184 -6.311479 139.999893
[Rope3_Seg07]
31 139.999771 0.000060 -0.000119 0.377383 1.216556 -0.948917 139.999771
32 139.999771 0.000060 -0.000119 0.381096 0.476645 -1.529981 139.999771
[Rope3_Seg08]
31 139.999985 -0.000060 0.000000 0.490117 0.443130 -0.303082 139.999985
32 139.999985 -0.000060 0.000000 0.501133 0.009155 -0.581897 139.999985
[Rope3_Seg09]
31 90.185997 -0.000179 -0.000060 89.793228 -1.359877 -0.847183 90.185997
32 90.185997 -0.000179 -0.000060 89.793228 -1.359877 -0.847183 90.185997
[R_rear_hand01]
31 103.366196 -6.073594 -10.757982 -177.714203 24.565960 -73.910950 104.101845
32 103.366196 -6.073594 -10.757982 -177.714203 24.565960 -73.910950 104.101845
[R_rear_hand02]
31 100.509819 12.039542 -7.992327 -12.874834 36.868492 72.167213 101.543350
32 100.509819 12.039542 -7.992327 -12.874829 36.868488 72.167213 101.543350
[R_rear_hand03]
31 101.539970 5.215704 5.435467 71.484627 -71.816643 21.513817 101.819031
32 101.539970 5.215704 5.435467 71.484581 -71.816628 21.513813 101.819031
[Rope4_Seg01]
31 0.000010 0.000038 -0.000114 -92.535080 30.308651 -85.848152 0.000121
32 0.000010 0.000038 -0.000114 -92.585571 29.771793 -85.855286 0.000121
[Rope4_Seg02]
31 139.999985 0.000060 0.000119 -0.339456 -0.010030 -3.945870 139.999985
32 139.999985 0.000060 0.000119 -0.284105 -0.041322 -3.366838 139.999985
[Rope4_Seg03]
31 139.999924 0.000000 -0.000238 -0.470451 0.053843 -4.163788 139.999924
32 139.999924 0.000000 -0.000238 -0.382121 0.009634 -3.542601 139.999924
[Rope4_Seg04]
31 139.999985 0.000000 0.000119 -0.510781 1.119915 -3.322551 139.999985
32 139.999985 0.000000 0.000119 -0.313252 0.935475 -2.216795 139.999985
[Rope4_Seg05]
31 139.999802 -0.000060 -0.000119 -0.844865 -0.944415 -6.053038 139.999802
32 139.999802 -0.000060 -0.000119 -0.799641 -0.952149 -6.083056 139.999802
[Rope4_Seg06]
31 139.999924 0.000000 0.000060 -1.037398 -2.718043 -6.532446 139.999924
32 139.999924 0.000000 0.000060 -1.219207 -2.380996 -7.314466 139.999924
[Rope4_Seg07]
31 139.999802 0.000000 0.000000 -0.893412 -1.415779 -4.063839 139.999802
32 139.999802 0.000000 0.000000 -0.960685 -1.142629 -4.248333 139.999802
[Rope4_Seg08]
31 139.999924 0.000000 0.000119 -2.204029 -0.723764 -2.472800 139.999924
32 139.999924 0.000000 0.000119 -2.211792 -0.583737 -2.515027 139.999924
[Rope4_Seg09]
31 90.185791 0.000060 0.000060 -135.617828 2.228885 0.850567 90.185791
32 90.185791 0.000060 0.000060 -135.617828 2.228885 0.850567 90.185791
[L_rear_hand01]
31 101.696655 -8.392275 -7.654577 -12.874829 -36.868488 107.832764 102.329041
32 101.696655 -8.392275 -7.654577 -12.874829 -36.868488 107.832764 102.329041
[L_rear_hand02]
31 102.726799 -1.568258 5.773216 71.484581 71.816628 158.486160 102.900848
32 102.726799 -1.568258 5.773216 71.484581 71.816628 158.486160 102.900848
[L_rear_hand03]
31 104.552910 9.721220 -10.420293 -177.714203 -24.565960 -106.089035 105.519653
32 104.552910 9.721220 -10.420293 -177.714203 -24.565960 -106.089035 105.519653
